<svg width="663.2px" height="122px" xmlns="http://www.w3.org/2000/svg" viewBox="-81.59999999999997 14 663.1999999999999 122" style="background: rgb(247, 246, 234)" preserveAspectRatio="xMidYMid"><defs><filter id="editing-hole" x="-100%" y="-100%" width="300%" height="300%"><feFlood flood-color="#f3b63f" result="black"></feFlood><feMorphology operator="dilate" radius="2" in="SourceGraphic" result="erode"></feMorphology><feGaussianBlur in="erode" stdDeviation="4" result="blur"></feGaussianBlur><feOffset in="blur" dx="2" dy="2" result="offset"></feOffset><feComposite operator="atop" in="offset" in2="black" result="merge"></feComposite><feComposite operator="in" in="merge" in2="SourceGraphic" result="inner-shadow"></feComposite></filter></defs><g filter="url(#editing-hole)"><g transform="matrix(1.3,0,0,1.3,-50.4,140.2)"><path d="M -2.4 -30.9 L -16.4 -30.9 L -8.3 -73.1 L 5.8 -73.1 L -2.4 -30.9 Z M 53.3 -29.6 L 53.3 -29.6 L 53.3 -29.6 Q 45.6 -29.6 45.6 -35.6 L 45.6 -35.6 L 45.6 -35.6 Q 45.6 -38.3 46.7 -43.3 L 46.7 -43.3 L 46.7 -43.3 Q 47.8 -48.4 48.2 -50.5 L 48.2 -50.5 L 48.2 -50.5 Q 49.1 -55.2 49.1 -56.6 L 49.1 -56.6 L 49.1 -56.6 Q 49.1 -59.9 46.6 -59.9 L 46.6 -59.9 L 46.6 -59.9 Q 45 -59.9 43.5 -57.7 L 43.5 -57.7 L 43.5 -57.7 Q 42 -55.5 41.3 -51.1 L 41.3 -51.1 L 37.3 -30.9 L 24.8 -29.6 L 28.3 -47 L 28.3 -47 Q 28.9 -49.9 29.4 -53.2 L 29.4 -53.2 L 29.4 -53.2 Q 29.9 -56.4 29.9 -56.9 L 29.9 -56.9 L 29.9 -56.9 Q 29.9 -59.9 27.7 -59.9 L 27.7 -59.9 L 27.7 -59.9 Q 26.2 -59.9 24.6 -57.7 L 24.6 -57.7 L 24.6 -57.7 Q 23 -55.5 22.1 -51.1 L 22.1 -51.1 L 18.2 -30.9 L 5.6 -29.6 L 12.3 -63.5 L 22.8 -64.8 L 21.7 -58.4 L 21.7 -58.4 Q 23.4 -61.8 26.4 -63.3 L 26.4 -63.3 L 26.4 -63.3 Q 29.5 -64.8 34.3 -64.8 L 34.3 -64.8 L 34.3 -64.8 Q 37 -64.8 38.8 -63.5 L 38.8 -63.5 L 38.8 -63.5 Q 40.6 -62.1 41.2 -60 L 41.2 -60 L 41.2 -60 Q 42.3 -62.2 45.1 -63.5 L 45.1 -63.5 L 45.1 -63.5 Q 47.9 -64.8 51.3 -64.8 L 51.3 -64.8 L 51.3 -64.8 Q 54.7 -64.8 56.4 -64.1 L 56.4 -64.1 L 56.4 -64.1 Q 58.1 -63.3 59.1 -62.1 L 59.1 -62.1 L 59.1 -62.1 Q 60.9 -59.9 60.9 -55.8 L 60.9 -55.8 L 60.9 -55.8 Q 60.9 -51.8 59.1 -43.4 L 59.1 -43.4 L 59.1 -43.4 Q 58.2 -39.3 58.2 -37.8 L 58.2 -37.8 L 58.2 -37.8 Q 58.2 -36.3 59.1 -35.4 L 59.1 -35.4 L 59.1 -35.4 Q 60 -34.5 61.2 -34.4 L 61.2 -34.4 L 61.2 -34.4 Q 60.6 -32.2 58.4 -30.9 L 58.4 -30.9 L 58.4 -30.9 Q 56.2 -29.6 53.3 -29.6 Z M 69 -32.8 L 69 -32.8 L 69 -32.8 Q 67.4 -34.5 66.8 -37.1 L 66.8 -37.1 L 66.8 -37.1 Q 66.1 -39.7 66.1 -44 L 66.1 -44 L 66.1 -44 Q 66.1 -48.3 67.6 -52.2 L 67.6 -52.2 L 67.6 -52.2 Q 69 -56.1 71.7 -58.9 L 71.7 -58.9 L 71.7 -58.9 Q 77.2 -64.8 86.3 -64.8 L 86.3 -64.8 L 86.3 -64.8 Q 89.6 -64.8 92 -63.7 L 92 -63.7 L 102.9 -64.8 L 98.2 -39.9 L 98.2 -39.9 Q 98 -39.1 98 -37.7 L 98 -37.7 L 98 -37.7 Q 98 -36.3 98.8 -35.4 L 98.8 -35.4 L 98.8 -35.4 Q 99.7 -34.5 101 -34.4 L 101 -34.4 L 101 -34.4 Q 100.3 -32.2 98 -30.9 L 98 -30.9 L 98 -30.9 Q 95.7 -29.6 93 -29.6 L 93 -29.6 L 93 -29.6 Q 90.4 -29.6 88.7 -30.6 L 88.7 -30.6 L 88.7 -30.6 Q 86.9 -31.6 86.4 -33.3 L 86.4 -33.3 L 86.4 -33.3 Q 85.4 -31.7 83.2 -30.6 L 83.2 -30.6 L 83.2 -30.6 Q 81 -29.6 78.1 -29.6 L 78.1 -29.6 L 78.1 -29.6 Q 75.2 -29.6 72.8 -30.4 L 72.8 -30.4 L 72.8 -30.4 Q 70.5 -31.2 69 -32.8 Z M 82.5 -58.8 L 82.5 -58.8 L 82.5 -58.8 Q 81.7 -57.6 81.1 -55.7 L 81.1 -55.7 L 81.1 -55.7 Q 80.4 -53.7 79.4 -48.5 L 79.4 -48.5 L 79.4 -48.5 Q 78.3 -43.3 78.3 -39.6 L 78.3 -39.6 L 78.3 -39.6 Q 78.3 -35.9 78.9 -34.8 L 78.9 -34.8 L 78.9 -34.8 Q 79.5 -33.7 80.5 -33.7 L 80.5 -33.7 L 80.5 -33.7 Q 82.6 -33.7 84.1 -35.7 L 84.1 -35.7 L 84.1 -35.7 Q 85.6 -37.6 86.1 -41.1 L 86.1 -41.1 L 89.5 -59.8 L 89.5 -59.8 Q 88.2 -61 86.6 -61 L 86.6 -61 L 86.6 -61 Q 85 -61 84.1 -60.5 L 84.1 -60.5 L 84.1 -60.5 Q 83.2 -60 82.5 -58.8 Z M 110.6 -57.6 L 110.6 -57.6 L 110.6 -57.6 Q 112.8 -60.7 116.1 -62.8 L 116.1 -62.8 L 116.1 -62.8 Q 119.4 -64.8 123.4 -64.8 L 123.4 -64.8 L 123.4 -64.8 Q 127.5 -64.8 129.4 -63.5 L 129.4 -63.5 L 141.9 -64.8 L 137.6 -40.2 L 137.6 -40.2 Q 135.4 -27.7 130.6 -22.8 L 130.6 -22.8 L 130.6 -22.8 Q 126.1 -18.1 117.2 -18.1 L 117.2 -18.1 L 117.2 -18.1 Q 110.5 -18.1 106.7 -20.2 L 106.7 -20.2 L 106.7 -20.2 Q 102.8 -22.3 102.8 -25.8 L 102.8 -25.8 L 102.8 -25.8 Q 102.8 -28.5 104.8 -30 L 104.8 -30 L 104.8 -30 Q 106.8 -31.5 109.9 -31.5 L 109.9 -31.5 L 109.9 -31.5 Q 112.6 -31.5 114.6 -30.3 L 114.6 -30.3 L 114.6 -30.3 Q 115.8 -29.6 116.4 -28.7 L 116.4 -28.7 L 116.4 -28.7 Q 114.9 -27.4 114.9 -25.3 L 114.9 -25.3 L 114.9 -25.3 Q 114.9 -22.6 117.5 -22.6 L 117.5 -22.6 L 117.5 -22.6 Q 121.8 -22.6 124.2 -32.7 L 124.2 -32.7 L 124.2 -32.7 Q 124.9 -35.4 125.5 -38.2 L 125.5 -38.2 L 125.5 -38.2 Q 122.6 -34.7 116.1 -34.7 L 116.1 -34.7 L 116.1 -34.7 Q 111.5 -34.7 108.9 -36.8 L 108.9 -36.8 L 108.9 -36.8 Q 106.3 -39 106.3 -44.1 L 106.3 -44.1 L 106.3 -44.1 Q 106.3 -47.3 107.4 -51 L 107.4 -51 L 107.4 -51 Q 108.5 -54.6 110.6 -57.6 Z M 119 -44 L 119 -44 L 119 -44 Q 119 -39.6 121.2 -39.6 L 121.2 -39.6 L 121.2 -39.6 Q 122.7 -39.6 124.2 -41.3 L 124.2 -41.3 L 124.2 -41.3 Q 125.4 -42.6 125.8 -44.6 L 125.8 -44.6 L 129.1 -61 L 129.1 -61 Q 128.8 -61.1 128.4 -61.2 L 128.4 -61.2 L 128.4 -61.2 Q 127.8 -61.5 127 -61.5 L 127 -61.5 L 127 -61.5 Q 123.1 -61.5 120.8 -55.1 L 120.8 -55.1 L 120.8 -55.1 Q 119 -50.1 119 -44 Z M 170.4 -41.7 L 170.4 -41.7 L 170.4 -41.7 Q 172 -40.6 172 -38.2 L 172 -38.2 L 172 -38.2 Q 172 -35.8 170.7 -34.3 L 170.7 -34.3 L 170.7 -34.3 Q 169.5 -32.8 167.5 -31.7 L 167.5 -31.7 L 167.5 -31.7 Q 163.4 -29.6 159 -29.6 L 159 -29.6 L 159 -29.6 Q 154.6 -29.6 152 -30.6 L 152 -30.6 L 152 -30.6 Q 149.4 -31.5 147.7 -33.3 L 147.7 -33.3 L 147.7 -33.3 Q 144.3 -36.7 144.3 -42.9 L 144.3 -42.9 L 144.3 -42.9 Q 144.3 -52.6 149.6 -58.5 L 149.6 -58.5 L 149.6 -58.5 Q 155.2 -64.8 165 -64.8 L 165 -64.8 L 165 -64.8 Q 171.1 -64.8 174.1 -62.3 L 174.1 -62.3 L 174.1 -62.3 Q 176.3 -60.3 176.3 -57.2 L 176.3 -57.2 L 176.3 -57.2 Q 176.3 -45.9 156.9 -45.9 L 156.9 -45.9 L 156.9 -45.9 Q 156.6 -44.3 156.6 -42.9 L 156.6 -42.9 L 156.6 -42.9 Q 156.6 -39.9 157.9 -38.8 L 157.9 -38.8 L 157.9 -38.8 Q 159.2 -37.7 161.7 -37.7 L 161.7 -37.7 L 161.7 -37.7 Q 164.1 -37.7 166.7 -38.8 L 166.7 -38.8 L 166.7 -38.8 Q 169.3 -39.9 170.4 -41.7 Z M 157.3 -48.7 L 157.3 -48.7 L 157.3 -48.7 Q 161.8 -48.7 164.5 -51.5 L 164.5 -51.5 L 164.5 -51.5 Q 167.1 -54.2 167.1 -58.5 L 167.1 -58.5 L 167.1 -58.5 Q 167.1 -60 166.6 -60.8 L 166.6 -60.8 L 166.6 -60.8 Q 166 -61.6 164.9 -61.6 L 164.9 -61.6 L 164.9 -61.6 Q 163.8 -61.6 162.9 -61.1 L 162.9 -61.1 L 162.9 -61.1 Q 162 -60.7 161 -59.3 L 161 -59.3 L 161 -59.3 Q 158.6 -56.1 157.3 -48.7 Z M 197.6 -53.4 L 197.6 -53.4 L 197.6 -53.4 Q 198.5 -55.7 198.5 -57.8 L 198.5 -57.8 L 198.5 -57.8 Q 198.5 -61.6 195.4 -61.6 L 195.4 -61.6 L 195.4 -61.6 Q 193.8 -61.6 192.5 -60.1 L 192.5 -60.1 L 192.5 -60.1 Q 191.2 -58.7 191.2 -56.9 L 191.2 -56.9 L 191.2 -56.9 Q 191.2 -55.6 192.2 -54.6 L 192.2 -54.6 L 192.2 -54.6 Q 193.7 -53.2 197.5 -50.9 L 197.5 -50.9 L 197.5 -50.9 Q 201.3 -48.6 202.7 -46.7 L 202.7 -46.7 L 202.7 -46.7 Q 204.2 -44.8 204.2 -42.2 L 204.2 -42.2 L 204.2 -42.2 Q 204.2 -39.6 202.9 -37.2 L 202.9 -37.2 L 202.9 -37.2 Q 201.7 -34.9 199.4 -33.2 L 199.4 -33.2 L 199.4 -33.2 Q 194.6 -29.6 186.9 -29.6 L 186.9 -29.6 L 186.9 -29.6 Q 182.8 -29.6 179.6 -31.8 L 179.6 -31.8 L 179.6 -31.8 Q 176.4 -33.9 176.4 -36.4 L 176.4 -36.4 L 176.4 -36.4 Q 176.4 -38.9 178.2 -40.4 L 178.2 -40.4 L 178.2 -40.4 Q 180 -41.8 182.7 -41.8 L 182.7 -41.8 L 182.7 -41.8 Q 185.4 -41.8 187.1 -40.8 L 187.1 -40.8 L 187.1 -40.8 Q 186.2 -38.7 186.2 -37.3 L 186.2 -37.3 L 186.2 -37.3 Q 186.2 -33.1 189.8 -33.1 L 189.8 -33.1 L 189.8 -33.1 Q 191.4 -33.1 192.4 -34 L 192.4 -34 L 192.4 -34 Q 193.4 -35 193.4 -36.7 L 193.4 -36.7 L 193.4 -36.7 Q 193.4 -39.9 187.9 -43.4 L 187.9 -43.4 L 187.9 -43.4 Q 183.4 -46.3 182.4 -47.5 L 182.4 -47.5 L 182.4 -47.5 Q 180.7 -49.5 180.7 -52.1 L 180.7 -52.1 L 180.7 -52.1 Q 180.7 -54.6 181.9 -57.1 L 181.9 -57.1 L 181.9 -57.1 Q 183.1 -59.5 185.3 -61.2 L 185.3 -61.2 L 185.3 -61.2 Q 190 -64.8 198.1 -64.8 L 198.1 -64.8 L 198.1 -64.8 Q 202.3 -64.8 204.8 -63.2 L 204.8 -63.2 L 204.8 -63.2 Q 207.2 -61.5 207.2 -58.7 L 207.2 -58.7 L 207.2 -58.7 Q 207.2 -55.9 205.5 -54.3 L 205.5 -54.3 L 205.5 -54.3 Q 203.8 -52.7 200.8 -52.7 L 200.8 -52.7 L 200.8 -52.7 Q 198.6 -52.7 197.6 -53.4 Z M 248.7 -51.5 L 261.6 -52.7 L 261.6 -52.7 Q 257 -42.5 257 -30.8 L 257 -30.8 L 257 -30.8 Q 255.3 -29.6 252.8 -29.6 L 252.8 -29.6 L 252.8 -29.6 Q 250.2 -29.6 248.6 -30.8 L 248.6 -30.8 L 248.6 -30.8 Q 247 -32 246.7 -33.2 L 246.7 -33.2 L 246.7 -33.2 Q 245.1 -31.5 242.5 -30.6 L 242.5 -30.6 L 242.5 -30.6 Q 239.9 -29.6 237.2 -29.6 L 237.2 -29.6 L 237.2 -29.6 Q 234.4 -29.6 232 -30.5 L 232 -30.5 L 232 -30.5 Q 229.6 -31.4 227.8 -33.4 L 227.8 -33.4 L 227.8 -33.4 Q 223.7 -37.7 223.7 -46 L 223.7 -46 L 223.7 -46 Q 223.7 -58.8 230.5 -66.5 L 230.5 -66.5 L 230.5 -66.5 Q 237.6 -74.4 250 -74.4 L 250 -74.4 L 250 -74.4 Q 258.7 -74.4 261.8 -69.9 L 261.8 -69.9 L 261.8 -69.9 Q 262.7 -68.5 262.7 -66.8 L 262.7 -66.8 L 262.7 -66.8 Q 262.7 -65.1 262 -63.7 L 262 -63.7 L 262 -63.7 Q 261.2 -62.3 260.1 -61.1 L 260.1 -61.1 L 260.1 -61.1 Q 257.3 -58.5 253.9 -58.5 L 253.9 -58.5 L 253.9 -58.5 Q 252.6 -58.5 251.3 -59 L 251.3 -59 L 251.3 -59 Q 251.6 -60.9 251.6 -63.2 L 251.6 -63.2 L 251.6 -63.2 Q 251.6 -65.4 251.4 -66.4 L 251.4 -66.4 L 251.4 -66.4 Q 251.3 -67.4 250.9 -68.3 L 250.9 -68.3 L 250.9 -68.3 Q 250 -70 248.2 -70 L 248.2 -70 L 248.2 -70 Q 246.4 -70 244.4 -68 L 244.4 -68 L 244.4 -68 Q 242.4 -66.1 240.8 -62.9 L 240.8 -62.9 L 240.8 -62.9 Q 237.2 -55.7 237.2 -47.1 L 237.2 -47.1 L 237.2 -47.1 Q 237.2 -43.1 238.8 -40.3 L 238.8 -40.3 L 238.8 -40.3 Q 240.4 -37.2 243.4 -37.2 L 243.4 -37.2 L 243.4 -37.2 Q 244.4 -37.2 245.3 -37.7 L 245.3 -37.7 L 245.3 -37.7 Q 246.3 -38.3 246.6 -38.6 L 246.6 -38.6 L 248.7 -51.5 Z M 267.5 -32.8 L 267.5 -32.8 L 267.5 -32.8 Q 266 -34.5 265.4 -37.1 L 265.4 -37.1 L 265.4 -37.1 Q 264.7 -39.7 264.7 -44 L 264.7 -44 L 264.7 -44 Q 264.7 -48.3 266.2 -52.2 L 266.2 -52.2 L 266.2 -52.2 Q 267.6 -56.1 270.3 -58.9 L 270.3 -58.9 L 270.3 -58.9 Q 275.8 -64.8 284.9 -64.8 L 284.9 -64.8 L 284.9 -64.8 Q 288.2 -64.8 290.6 -63.7 L 290.6 -63.7 L 301.5 -64.8 L 296.8 -39.9 L 296.8 -39.9 Q 296.6 -39.1 296.6 -37.7 L 296.6 -37.7 L 296.6 -37.7 Q 296.6 -36.3 297.4 -35.4 L 297.4 -35.4 L 297.4 -35.4 Q 298.3 -34.5 299.6 -34.4 L 299.6 -34.4 L 299.6 -34.4 Q 298.9 -32.2 296.6 -30.9 L 296.6 -30.9 L 296.6 -30.9 Q 294.3 -29.6 291.6 -29.6 L 291.6 -29.6 L 291.6 -29.6 Q 289 -29.6 287.3 -30.6 L 287.3 -30.6 L 287.3 -30.6 Q 285.5 -31.6 285 -33.3 L 285 -33.3 L 285 -33.3 Q 284 -31.7 281.8 -30.6 L 281.8 -30.6 L 281.8 -30.6 Q 279.6 -29.6 276.7 -29.6 L 276.7 -29.6 L 276.7 -29.6 Q 273.8 -29.6 271.4 -30.4 L 271.4 -30.4 L 271.4 -30.4 Q 269 -31.2 267.5 -32.8 Z M 281 -58.8 L 281 -58.8 L 281 -58.8 Q 280.3 -57.6 279.7 -55.7 L 279.7 -55.7 L 279.7 -55.7 Q 279 -53.7 278 -48.5 L 278 -48.5 L 278 -48.5 Q 276.9 -43.3 276.9 -39.6 L 276.9 -39.6 L 276.9 -39.6 Q 276.9 -35.9 277.5 -34.8 L 277.5 -34.8 L 277.5 -34.8 Q 278.1 -33.7 279.1 -33.7 L 279.1 -33.7 L 279.1 -33.7 Q 281.1 -33.7 282.6 -35.7 L 282.6 -35.7 L 282.6 -35.7 Q 284.2 -37.6 284.7 -41.1 L 284.7 -41.1 L 288.1 -59.8 L 288.1 -59.8 Q 286.8 -61 285.2 -61 L 285.2 -61 L 285.2 -61 Q 283.6 -61 282.7 -60.5 L 282.7 -60.5 L 282.7 -60.5 Q 281.8 -60 281 -58.8 Z M 320.2 -34.4 L 320.2 -34.4 L 320.2 -34.4 Q 318.3 -29.6 311.9 -29.6 L 311.9 -29.6 L 311.9 -29.6 Q 308.7 -29.6 306.7 -31.9 L 306.7 -31.9 L 306.7 -31.9 Q 305 -33.7 305 -35.8 L 305 -35.8 L 305 -35.8 Q 305 -40.6 307.3 -51.1 L 307.3 -51.1 L 311.9 -75.7 L 324.9 -77 L 318.7 -44.6 L 318.7 -44.6 Q 317.6 -39.9 317.6 -38.2 L 317.6 -38.2 L 317.6 -38.2 Q 317.6 -34.5 320.2 -34.4 Z M 341 -34.4 L 341 -34.4 L 341 -34.4 Q 339 -29.6 332.7 -29.6 L 332.7 -29.6 L 332.7 -29.6 Q 329.5 -29.6 327.4 -31.9 L 327.4 -31.9 L 327.4 -31.9 Q 325.8 -33.7 325.8 -35.8 L 325.8 -35.8 L 325.8 -35.8 Q 325.8 -40.6 328 -51.1 L 328 -51.1 L 332.7 -75.7 L 345.7 -77 L 339.4 -44.6 L 339.4 -44.6 Q 338.4 -39.9 338.4 -38.2 L 338.4 -38.2 L 338.4 -38.2 Q 338.4 -34.5 341 -34.4 Z M 372.3 -41.7 L 372.3 -41.7 L 372.3 -41.7 Q 373.9 -40.6 373.9 -38.2 L 373.9 -38.2 L 373.9 -38.2 Q 373.9 -35.8 372.7 -34.3 L 372.7 -34.3 L 372.7 -34.3 Q 371.5 -32.8 369.5 -31.7 L 369.5 -31.7 L 369.5 -31.7 Q 365.4 -29.6 361 -29.6 L 361 -29.6 L 361 -29.6 Q 356.6 -29.6 354 -30.6 L 354 -30.6 L 354 -30.6 Q 351.4 -31.5 349.7 -33.3 L 349.7 -33.3 L 349.7 -33.3 Q 346.3 -36.7 346.3 -42.9 L 346.3 -42.9 L 346.3 -42.9 Q 346.3 -52.6 351.5 -58.5 L 351.5 -58.5 L 351.5 -58.5 Q 357.2 -64.8 367 -64.8 L 367 -64.8 L 367 -64.8 Q 373 -64.8 376.1 -62.3 L 376.1 -62.3 L 376.1 -62.3 Q 378.3 -60.3 378.3 -57.2 L 378.3 -57.2 L 378.3 -57.2 Q 378.3 -45.9 358.8 -45.9 L 358.8 -45.9 L 358.8 -45.9 Q 358.6 -44.3 358.6 -42.9 L 358.6 -42.9 L 358.6 -42.9 Q 358.6 -39.9 359.9 -38.8 L 359.9 -38.8 L 359.9 -38.8 Q 361.2 -37.7 363.6 -37.7 L 363.6 -37.7 L 363.6 -37.7 Q 366.1 -37.7 368.7 -38.8 L 368.7 -38.8 L 368.7 -38.8 Q 371.3 -39.9 372.3 -41.7 Z M 359.3 -48.7 L 359.3 -48.7 L 359.3 -48.7 Q 363.8 -48.7 366.5 -51.5 L 366.5 -51.5 L 366.5 -51.5 Q 369.1 -54.2 369.1 -58.5 L 369.1 -58.5 L 369.1 -58.5 Q 369.1 -60 368.5 -60.8 L 368.5 -60.8 L 368.5 -60.8 Q 368 -61.6 366.9 -61.6 L 366.9 -61.6 L 366.9 -61.6 Q 365.8 -61.6 364.9 -61.1 L 364.9 -61.1 L 364.9 -61.1 Q 364 -60.7 363 -59.3 L 363 -59.3 L 363 -59.3 Q 360.6 -56.1 359.3 -48.7 Z M 400.5 -48.9 L 400.5 -48.9 L 400.5 -48.9 Q 402.8 -53 402.8 -57.1 L 402.8 -57.1 L 402.8 -57.1 Q 402.8 -59.9 400.8 -59.9 L 400.8 -59.9 L 400.8 -59.9 Q 399.3 -59.9 397.7 -57.3 L 397.7 -57.3 L 397.7 -57.3 Q 396 -54.6 395.5 -51.2 L 395.5 -51.2 L 392.2 -30.9 L 378.9 -29.6 L 385.5 -63.5 L 396 -64.8 L 394.9 -58.4 L 394.9 -58.4 Q 398 -64.8 405 -64.8 L 405 -64.8 L 405 -64.8 Q 408.8 -64.8 410.8 -62.9 L 410.8 -62.9 L 410.8 -62.9 Q 412.8 -61 412.8 -57 L 412.8 -57 L 412.8 -57 Q 412.8 -53.1 410.2 -50.6 L 410.2 -50.6 L 410.2 -50.6 Q 407.6 -48.1 403.2 -48.1 L 403.2 -48.1 L 403.2 -48.1 Q 401.3 -48.1 400.5 -48.9 Z M 434.2 -38.1 L 434.2 -38.1 L 434.2 -38.1 Q 430.8 -34.7 424.8 -34.7 L 424.8 -34.7 L 424.8 -34.7 Q 417.1 -34.7 415.5 -40.2 L 415.5 -40.2 L 415.5 -40.2 Q 415 -41.9 415 -43.8 L 415 -43.8 L 415 -43.8 Q 415 -45.6 415.4 -47.5 L 415.4 -47.5 L 418.4 -63.5 L 431.4 -64.8 L 427.9 -46.2 L 427.9 -46.2 Q 427.8 -45.4 427.6 -44.5 L 427.6 -44.5 L 427.6 -44.5 Q 427.4 -43.6 427.4 -42.6 L 427.4 -42.6 L 427.4 -42.6 Q 427.4 -41.7 427.7 -41.1 L 427.7 -41.1 L 427.7 -41.1 Q 428 -40.5 428.5 -40.1 L 428.5 -40.1 L 428.5 -40.1 Q 429.2 -39.6 430.6 -39.6 L 430.6 -39.6 L 430.6 -39.6 Q 432 -39.6 433.2 -41.3 L 433.2 -41.3 L 433.2 -41.3 Q 434.4 -42.9 434.9 -45.8 L 434.9 -45.8 L 438.5 -63.5 L 451.1 -64.8 L 446.3 -39.7 L 446.3 -39.7 Q 443.9 -27.4 439 -22.5 L 439 -22.5 L 439 -22.5 Q 436.5 -20 433.3 -19 L 433.3 -19 L 433.3 -19 Q 430.1 -18 425.9 -18 L 425.9 -18 L 425.9 -18 Q 419.2 -18 415.4 -20.1 L 415.4 -20.1 L 415.4 -20.1 Q 411.5 -22.3 411.5 -25.8 L 411.5 -25.8 L 411.5 -25.8 Q 411.5 -28.4 413.5 -29.9 L 413.5 -29.9 L 413.5 -29.9 Q 415.5 -31.4 418.6 -31.4 L 418.6 -31.4 L 418.6 -31.4 Q 421.2 -31.4 423.3 -30.3 L 423.3 -30.3 L 423.3 -30.3 Q 424.5 -29.6 425.1 -28.7 L 425.1 -28.7 L 425.1 -28.7 Q 423.6 -27.4 423.6 -25.3 L 423.6 -25.3 L 423.6 -25.3 Q 423.6 -22.4 426.2 -22.4 L 426.2 -22.4 L 426.2 -22.4 Q 430.4 -22.4 432.8 -32.2 L 432.8 -32.2 L 432.8 -32.2 Q 433.5 -35.1 434.2 -38.1 Z" fill="#a12d2b"></path></g></g><style>text {
  font-size: 64px;
  font-family: Arial Black;
  dominant-baseline: central;
  text-anchor: middle;
}</style></svg>